# xmcd
#
# Track frame offsets:
#	150
#	17362
#	36964
#	51554
#	63486
#	76069
#	90366
#	108411
#	126323
#	145120
#	155614
#	173606
#	192288
#
# Disc length: 2751 seconds
#
# Revision: 1
# Processed by: cddbd v1.5.1PL0 Copyright (c) Steve Scherf et al.
# Submitted via: audiograbber 1.83.01
#
DISCID=a40abd0d
DTITLE=Johnny Nicholas - Rockin' My Blues to Sleep
DYEAR=2000
DGENRE=Blues
TTITLE0=Rockin' My Blues to Sleep
TTITLE1=Rain Down Tears
TTITLE2=The Last Meal
TTITLE3=I'm A Fool to Care
TTITLE4=Where You At
TTITLE5=Reap What You Sow
TTITLE6=Woke Up Screamin '
TTITLE7=Mamma, Talk to Your Daughter
TTITLE8=In the Doorway Cryin'
TTITLE9=The Hustle Is On
TTITLE10=Things I Used to Do
TTITLE11=Vefore I Grow Too Old
TTITLE12=Boogie Back to Texas
EXTD=
EXTT0=
EXTT1=
EXTT2=
EXTT3=
EXTT4=
EXTT5=
EXTT6=
EXTT7=
EXTT8=
EXTT9=
EXTT10=
EXTT11=
EXTT12=
PLAYORDER=
